<?xml version="1.0" standalone="no"?>
<!DOCTYPE svg PUBLIC "-//W3C//DTD SVG 20010904//EN"
 "http://www.w3.org/TR/2001/REC-SVG-20010904/DTD/svg10.dtd">
<svg version="1.0" xmlns="http://www.w3.org/2000/svg"
 width="260.000000pt" height="260.000000pt" viewBox="0 0 260.000000 260.000000"
 preserveAspectRatio="xMidYMid meet">
<metadata>
Created by potrace 1.11, written by Peter Selinger 2001-2013
</metadata>
<g transform="translate(0.000000,260.000000) scale(0.100000,-0.100000)"
fill="#000000" stroke="none">
<path d="M0 1300 l0 -1300 1300 0 1300 0 0 1300 0 1300 -1300 0 -1300 0 0
-1300z m613 820 c-9 -22 -19 -40 -22 -40 -3 0 -60 18 -126 39 l-120 39 142 1
141 1 -15 -40z m207 33 c0 -5 -10 -33 -21 -63 -15 -38 -22 -78 -22 -132 -1
-66 4 -85 31 -140 56 -114 164 -195 332 -249 124 -41 314 -51 432 -25 215 48
447 229 653 510 l78 106 63 0 c35 0 64 -3 64 -6 0 -10 -759 -1214 -792 -1256
-16 -20 -52 -48 -81 -63 l-53 -25 -314 2 -315 3 120 33 c66 17 187 48 269 68
81 19 159 42 172 51 52 34 38 89 -40 161 -61 56 -127 97 -276 172 -158 79
-229 127 -310 209 -135 137 -185 298 -145 466 14 60 49 149 67 173 11 13 88
17 88 5z m-407 -443 l167 0 10 -27 c6 -16 15 -36 20 -45 7 -13 7 -18 -2 -18
-29 0 -394 84 -403 93 -7 6 -1 8 15 3 14 -3 100 -6 193 -6z m514 -1062 c48
-45 14 -146 -60 -182 -51 -24 -93 -21 -124 10 -21 21 -25 32 -20 65 3 22 13
51 22 65 40 62 137 84 182 42z m514 3 c31 -25 32 -88 3 -128 -65 -87 -174 -97
-204 -18 -18 47 29 132 85 155 36 15 92 11 116 -9z"/>
</g>
</svg>
