<?xml version="1.0" standalone="no"?>
<!DOCTYPE svg PUBLIC "-//W3C//DTD SVG 20010904//EN"
 "http://www.w3.org/TR/2001/REC-SVG-20010904/DTD/svg10.dtd">
<svg version="1.0" xmlns="http://www.w3.org/2000/svg"
 width="260.000000pt" height="260.000000pt" viewBox="0 0 260.000000 260.000000"
 preserveAspectRatio="xMidYMid meet">
<metadata>
Created by potrace 1.11, written by Peter Selinger 2001-2013
</metadata>
<g transform="translate(0.000000,260.000000) scale(0.100000,-0.100000)"
fill="#000000" stroke="none">
<path d="M0 1300 l0 -1300 1300 0 1300 0 0 1300 0 1300 -1300 0 -1300 0 0
-1300z m611 875 c-9 -25 -18 -45 -21 -45 -3 0 -61 20 -130 45 l-125 44 146 0
147 1 -17 -45z m219 42 c0 -2 -10 -30 -22 -63 -15 -43 -21 -83 -22 -149 -1
-78 3 -98 27 -149 39 -83 86 -137 168 -192 150 -100 362 -144 546 -114 228 37
465 231 686 562 l72 107 68 1 68 0 -32 -57 c-343 -599 -744 -1287 -769 -1316
-64 -76 -70 -77 -422 -76 l-313 1 75 24 c41 13 160 47 265 74 207 55 235 70
235 126 0 69 -116 175 -299 275 -348 188 -500 379 -501 626 0 90 14 158 52
251 l30 72 44 0 c24 0 44 -2 44 -3z m-226 -533 c10 -31 15 -58 13 -61 -6 -5
-377 91 -412 107 -13 5 54 9 181 9 l200 1 18 -56z m834 -1097 c15 -15 22 -32
22 -59 0 -102 -109 -185 -188 -144 -34 17 -42 33 -42 82 0 64 40 116 106 139
43 15 71 10 102 -18z m-519 13 c53 -28 46 -122 -11 -177 -60 -58 -110 -66
-157 -27 -36 30 -41 75 -15 131 32 66 126 104 183 73z"/>
</g>
</svg>
