<?xml version="1.0" encoding="UTF-8" standalone="no"?>
<!-- Created with Inkscape (http://www.inkscape.org/) -->

<svg
   xmlns:dc="http://purl.org/dc/elements/1.1/"
   xmlns:cc="http://creativecommons.org/ns#"
   xmlns:rdf="http://www.w3.org/1999/02/22-rdf-syntax-ns#"
   xmlns:svg="http://www.w3.org/2000/svg"
   xmlns="http://www.w3.org/2000/svg"
   xmlns:sodipodi="http://sodipodi.sourceforge.net/DTD/sodipodi-0.dtd"
   xmlns:inkscape="http://www.inkscape.org/namespaces/inkscape"
   width="2532.7507mm"
   height="543.41052mm"
   viewBox="0 0 8974.3138 1925.4703"
   id="svg4539"
   version="1.1"
   inkscape:version="0.91 r13725"
   sodipodi:docname="yipcart-logo.svg">
  <defs
     id="defs4541" />
  <sodipodi:namedview
     id="base"
     pagecolor="#ffffff"
     bordercolor="#666666"
     borderopacity="1.0"
     inkscape:pageopacity="0.0"
     inkscape:pageshadow="2"
     inkscape:zoom="0.12374369"
     inkscape:cx="4502.1505"
     inkscape:cy="354.79489"
     inkscape:document-units="px"
     inkscape:current-layer="layer1"
     showgrid="false"
     inkscape:window-width="1680"
     inkscape:window-height="955"
     inkscape:window-x="0"
     inkscape:window-y="1"
     inkscape:window-maximized="1"
     showguides="true"
     inkscape:guide-bbox="true"
     fit-margin-top="0"
     fit-margin-left="0"
     fit-margin-right="0"
     fit-margin-bottom="0" />
  <metadata
     id="metadata4544">
    <rdf:RDF>
      <cc:Work
         rdf:about="">
        <dc:format>image/svg+xml</dc:format>
        <dc:type
           rdf:resource="http://purl.org/dc/dcmitype/StillImage" />
        <dc:title></dc:title>
      </cc:Work>
    </rdf:RDF>
  </metadata>
  <g
     inkscape:label="Layer 1"
     inkscape:groupmode="layer"
     id="layer1"
     transform="translate(3421.3795,2186.116)">
    <text
       transform="matrix(1,0,-0.12468903,1,0,0)"
       sodipodi:linespacing="125%"
       id="text5408"
       y="-720.74463"
       x="-3482.5247"
       style="font-style:normal;font-variant:normal;font-weight:normal;font-stretch:normal;font-size:1736.2220459px;line-height:125%;font-family:'Futura Maxi CG Demi';-inkscape-font-specification:'Futura Maxi CG Demi, Normal';text-align:start;letter-spacing:0px;word-spacing:0px;writing-mode:lr-tb;text-anchor:start;fill:#000000;fill-opacity:1;stroke:none;stroke-width:1px;stroke-linecap:butt;stroke-linejoin:miter;stroke-opacity:1;"
       xml:space="preserve"><tspan
         y="-720.74463"
         x="-3482.5247"
         id="tspan5410"
         sodipodi:role="line"
         style="letter-spacing:-70.323349px;stroke:none;fill:#000000;">yipcart</tspan></text>
    <g
       transform="matrix(2.6699068,0,0,2.6699068,3696.0977,2643.2269)"
       id="layer1-2"
       inkscape:label="Layer 1"
       style="stroke:none;fill:#3668d3;fill-opacity:1">
      <path
         inkscape:export-ydpi="300"
         inkscape:export-xdpi="300"
         style="font-style:normal;font-variant:normal;font-weight:normal;font-stretch:normal;font-size:medium;line-height:125%;font-family:'Android Assassin';-inkscape-font-specification:'Android Assassin, Normal';text-align:start;letter-spacing:0px;word-spacing:0px;writing-mode:lr-tb;text-anchor:start;fill:#3668d3;fill-opacity:1;stroke:none;stroke-width:1px;stroke-linecap:butt;stroke-linejoin:miter;stroke-opacity:1"
         d="m -136.54503,-1768.6692 102.767194,32.4112 c 4.27033,-12.9614 7.58168,-20.6487 13.53027,-32.4112 z m 158.60867,0.2793 c -102.888566,183.9439 47.11561,293.1116 150.10622,339.8634 102.99167,46.7512 197.00275,122.8785 95.88216,144.2811 -101.12272,21.4014 -198.153104,50.5649 -198.153104,50.5649 l 236.982004,0 c 34.97074,0 63.30026,-17.4868 84.98754,-52.4587 l 303.60021,-482.175 -53.96094,0 c -31.75591,43.1017 -147.19754,223.7326 -304.97289,246.9394 -157.77534,23.2085 -367.281766,-72.0852 -278.792651,-246.245 l -35.678549,-0.7516 z m -223.22053,176.189 176.781434,39.9234 c 0,0 -4.89038,-9.6651 -8.77704,-19.1708 -4.19149,-10.2501 -6.63906,-20.7526 -6.63906,-20.7526 z m 274.482213,412.249 c -24.514316,0 -49.812762,19.8719 -56.506535,44.3866 -6.693856,24.5129 7.750714,44.3861 32.265029,44.3861 24.514316,0 49.812711,-19.8732 56.508683,-44.3861 6.69273,-24.5147 -7.753956,-44.3866 -32.267177,-44.3866 z m 203.960787,0 c -24.5143,0 -49.81381,19.8719 -56.50761,44.3866 -6.69384,24.5129 7.75076,44.3861 32.26506,44.3861 24.51432,-10e-4 49.81271,-19.8732 56.50652,-44.3861 6.69491,-24.5147 -7.75181,-44.3866 -32.26397,-44.3866 z"
         id="path5406-9"
         inkscape:connector-curvature="0"
         sodipodi:nodetypes="cccccsscssccscccccsccssssssssss" />
    </g>
  </g>
</svg>
