<?xml version="1.0" encoding="UTF-8"?>
<svg width="942px" height="220px" viewBox="0 0 942 220" version="1.1" xmlns="http://www.w3.org/2000/svg" xmlns:xlink="http://www.w3.org/1999/xlink">
    <!-- Generator: Sketch 52.6 (67491) - http://www.bohemiancoding.com/sketch -->
    <title>Group 6 Copy</title>
    <desc>Created with Sketch.</desc>
    <g id="Assets" stroke="none" stroke-width="1" fill="none" fill-rule="evenodd">
        <g id="Group-6-Copy">
            <path d="M644.222222,0 L683.495915,10.1851852 C685.127872,6.112079 686.393343,3.69635314 688.666667,0 L644.222222,0 Z M698.910029,0 C661.76867,59.564215 715.918118,94.9146036 753.096314,110.053645 C790.274893,125.192492 824.211602,149.843827 787.708457,156.774359 C751.204544,163.704503 716.177907,173.148148 716.177907,173.148148 L801.725157,173.148148 C814.349114,173.148148 824.575682,167.48562 832.404492,156.161114 L942,0.0245129688 L922.520841,0.0245129688 C911.057394,13.9815886 869.38455,72.4729969 812.429815,79.9877599 C755.475084,87.5030735 679.84614,56.6453259 711.789496,0.249371694 L698.910029,0.00599061984 L698.910029,0 Z M622,57.037037 L684.222222,71.2962963 C684.222222,71.2962963 682.500942,67.8442565 681.132945,64.4491488 C679.657655,60.7881672 678.796177,57.037037 678.796177,57.037037 L622,57.037037 Z M720.833526,189.444444 C711.956016,189.444444 702.794545,196.284351 700.370491,204.722308 C697.946406,213.159646 703.177301,220 712.05481,220 C720.93232,220 730.093773,213.159646 732.518623,204.722308 C734.9423,196.284351 729.710639,189.444444 720.833526,189.444444 Z M791.945303,189.444444 C783.067681,189.444444 773.905703,196.284351 771.481606,204.722308 C769.057495,213.159646 774.288471,220 783.166093,220 C792.043722,219.999656 801.205295,213.159646 803.629395,204.722308 C806.053893,196.284351 800.82215,189.444444 791.945303,189.444444 Z" id="path5406-copy" fill="#3668D3" fill-rule="nonzero"></path>
            <path d="M107.745294,75.6442495 L24.5717774,207 L0,207 L36.9551732,148.816764 L4.09529624,75.6442495 L27.1069608,75.6442495 L49.8261042,129.038012 L83.0760094,75.6442495 L107.745294,75.6442495 Z M139.383465,35.9093567 C139.383465,38.7475775 138.245894,41.2014192 135.970718,43.2709552 C133.695542,45.3404912 130.965372,46.3752437 127.780125,46.3752437 C124.594879,46.3752437 121.832207,45.3109268 119.492026,43.1822612 C117.21685,40.9353364 116.079279,38.3632374 116.079279,35.4658869 C116.079279,32.5685365 117.184348,30.1146949 119.394519,28.1042885 C121.669695,26.0347525 124.367363,25 127.487604,25 C130.672851,25 133.435523,26.0938812 135.775704,28.2816764 C138.18089,30.410342 139.383465,32.9528767 139.383465,35.9093567 Z M132.655478,75.6442495 L121.34466,159.193957 L99.7956012,159.193957 L111.106419,75.6442495 L132.655478,75.6442495 Z M171.021636,75.6442495 L169.851551,84.4249513 C179.14727,77.21114 188.93038,73.6042885 199.201174,73.6042885 C211.422119,73.6042885 221.595253,77.4772192 229.720882,85.2231969 C237.84651,92.9691745 241.909263,102.754977 241.909263,114.580897 C241.909263,127.707668 237.261474,138.764737 227.965755,147.752437 C218.735041,156.681006 207.261826,161.145224 193.545765,161.145224 C186.525222,161.145224 180.772363,160.140036 176.287017,158.12963 C171.606655,156.119223 166.633845,152.482807 161.368437,147.220273 L153.275352,207 L131.726293,207 L149.472577,75.6442495 L171.021636,75.6442495 Z M220.360205,115.379142 C220.360205,107.987942 218.020059,101.927249 213.339697,97.1968811 C208.659335,92.4073835 202.678962,90.0126706 195.398399,90.0126706 C186.687725,90.0126706 179.407272,92.9099775 173.556819,98.7046784 C167.706367,104.499379 164.781184,111.624389 164.781184,120.079922 C164.781184,127.471122 167.251338,133.413558 172.19172,137.907407 C177.132102,142.519516 183.5025,144.825536 191.303103,144.825536 C199.493736,144.825536 206.384166,141.987358 211.974598,136.310916 C217.56503,130.516215 220.360205,123.539027 220.360205,115.379142 Z M326.493764,83.7153996 L323.763567,103.67154 C319.343225,98.5272647 315.117962,94.8317201 311.08765,92.5847953 C307.122343,90.3970001 302.442051,89.3031189 297.046634,89.3031189 C288.856001,89.3031189 282.128081,92.0526041 276.862674,97.5516569 C271.597267,103.05071 268.964603,110.116591 268.964603,118.749513 C268.964603,126.850268 271.434757,133.324862 276.375139,138.173489 C281.380526,143.081246 287.848429,145.535088 295.779043,145.535088 C303.384631,145.535088 311.250121,142.549088 319.375749,136.576998 L316.548045,157.24269 C308.227401,160.317429 300.296907,161.854776 292.756324,161.854776 C279.300283,161.854776 268.3471,157.863588 259.896447,149.881092 C251.510798,141.898596 247.318037,131.551071 247.318037,118.838207 C247.318037,105.770565 251.835819,94.8613173 260.871517,86.1101365 C269.972221,77.299826 281.282926,72.8947368 294.803972,72.8947368 C305.854827,72.8947368 316.417985,76.5015884 326.493764,83.7153996 Z M427.069422,75.6442495 L415.758604,159.193957 L394.209545,159.193957 L395.477137,150.147173 C386.246423,157.479244 376.690827,161.145224 366.810063,161.145224 C354.654123,161.145224 344.741005,157.390551 337.070412,149.881092 C329.399818,142.371632 325.564579,132.644959 325.564579,120.70078 C325.564579,106.923583 329.952353,95.6299986 338.728032,86.8196881 C347.63372,78.0093777 359.041931,73.6042885 372.953007,73.6042885 C379.518515,73.6042885 385.108864,74.5799123 389.72422,76.5311891 C394.404582,78.4824659 399.18238,81.8528026 404.057757,86.6423002 L405.520363,75.6442495 L427.069422,75.6442495 Z M400.840025,115.024366 C400.840025,107.633166 398.499879,101.631602 393.819517,97.0194932 C389.139155,92.3482547 383.093778,90.0126706 375.683205,90.0126706 C367.622581,90.0126706 360.86216,92.8804132 355.401738,98.6159844 C349.941315,104.410685 347.211145,111.506131 347.211145,119.902534 C347.211145,127.234605 349.486287,133.236169 354.036639,137.907407 C358.586991,142.578646 364.437356,144.91423 371.587909,144.91423 C379.518522,144.91423 386.376449,141.987359 392.161897,136.133528 C397.947344,130.161439 400.840025,123.125122 400.840025,115.024366 Z M465.533087,75.6442495 L464.558016,82.82846 C471.838579,76.5607224 479.184037,73.4269006 486.59461,73.4269006 C493.095113,73.4269006 499.010481,75.5850986 504.340894,79.9015595 L490.592399,96.0438596 C486.627093,92.9691204 482.661845,91.4317739 478.696539,91.4317739 C475.966328,91.4317739 473.561178,91.9195858 471.481017,92.8952242 C469.400856,93.8708626 467.596993,95.4082091 466.069375,97.5073099 C464.541757,99.6064108 463.274178,102.311549 462.2666,105.622807 C461.259022,108.934065 460.462723,112.895688 459.877677,117.507797 L454.222268,159.193957 L432.67321,159.193957 L443.984028,75.6442495 L465.533087,75.6442495 Z M536.670885,93.8265107 L527.797743,159.193957 L506.248684,159.193957 L515.121826,93.8265107 L502.933444,93.8265107 L505.371121,75.6442495 L517.559502,75.6442495 L522.824883,36.8849903 L544.373942,36.8849903 L539.108561,75.6442495 L559,75.6442495 L556.562324,93.8265107 L536.670885,93.8265107 Z" id="yipcart" fill="#212121"></path>
        </g>
    </g>
</svg>