<?xml version="1.0" encoding="UTF-8" standalone="no"?>
<!-- Created with Inkscape (http://www.inkscape.org/) -->

<svg
   xmlns:dc="http://purl.org/dc/elements/1.1/"
   xmlns:cc="http://creativecommons.org/ns#"
   xmlns:rdf="http://www.w3.org/1999/02/22-rdf-syntax-ns#"
   xmlns:svg="http://www.w3.org/2000/svg"
   xmlns="http://www.w3.org/2000/svg"
   xmlns:sodipodi="http://sodipodi.sourceforge.net/DTD/sodipodi-0.dtd"
   xmlns:inkscape="http://www.inkscape.org/namespaces/inkscape"
   width="2170.4893mm"
   height="510.49347mm"
   viewBox="0 0 7690.7102 1808.8351"
   id="svg4539"
   version="1.1"
   inkscape:version="0.91 r13725"
   sodipodi:docname="yipcart-logo.svg">
  <defs
     id="defs4541" />
  <sodipodi:namedview
     id="base"
     pagecolor="#ffffff"
     bordercolor="#666666"
     borderopacity="1.0"
     inkscape:pageopacity="0.0"
     inkscape:pageshadow="2"
     inkscape:zoom="0.12374369"
     inkscape:cx="3667.3794"
     inkscape:cy="619.72605"
     inkscape:document-units="px"
     inkscape:current-layer="layer1"
     showgrid="false"
     inkscape:window-width="1680"
     inkscape:window-height="955"
     inkscape:window-x="0"
     inkscape:window-y="1"
     inkscape:window-maximized="1"
     showguides="true"
     inkscape:guide-bbox="true"
     fit-margin-top="0"
     fit-margin-left="0"
     fit-margin-right="0"
     fit-margin-bottom="0" />
  <metadata
     id="metadata4544">
    <rdf:RDF>
      <cc:Work
         rdf:about="">
        <dc:format>image/svg+xml</dc:format>
        <dc:type
           rdf:resource="http://purl.org/dc/dcmitype/StillImage" />
        <dc:title></dc:title>
      </cc:Work>
    </rdf:RDF>
  </metadata>
  <g
     inkscape:label="Layer 1"
     inkscape:groupmode="layer"
     id="layer1"
     transform="translate(2671.4612,2127.7985)">
    <g
       transform="matrix(1,0,-0.12468903,1,0,0)"
       style="font-style:normal;font-variant:normal;font-weight:normal;font-stretch:normal;font-size:1328.15319824px;line-height:125%;font-family:'Futura Maxi CG Demi';-inkscape-font-specification:'Futura Maxi CG Demi, Normal';text-align:start;letter-spacing:0px;word-spacing:0px;writing-mode:lr-tb;text-anchor:start;fill:#000000;fill-opacity:1;stroke:none;stroke-width:1px;stroke-linecap:butt;stroke-linejoin:miter;stroke-opacity:1"
       id="text5408">
      <path
         d="m -1880.1628,-1654.3666 -187.2696,0 -212.5046,511.339 -248.3646,-511.339 -204.5356,0 366.5703,713.21825 -213.8327,448.91578 200.5512,0 499.3856,-1162.13403 z"
         style="letter-spacing:-53.79507065px;fill:#000000;stroke:none"
         id="path4157" />
      <path
         d="m -1591.5849,-1841.6362 c 0,-65.0795 -53.1261,-118.2057 -118.2056,-118.2057 -65.0795,0 -118.2057,53.1262 -118.2057,118.2057 0,65.0795 53.1262,118.2056 118.2057,118.2056 65.0795,0 118.2056,-53.1261 118.2056,-118.2056 z m -25.2349,1002.75565 0,-815.48605 -188.5978,0 0,815.48605 188.5978,0 z"
         style="letter-spacing:-53.79507065px;fill:#000000;stroke:none"
         id="path4159" />
      <path
         d="m -638.99261,-1233.3421 c 0,-228.4423 -142.11239,-436.9624 -389.14889,-436.9624 -108.9086,0 -197.8948,50.4699 -252.3491,138.128 l 0,-122.1901 -176.6444,0 0,1167.44664 184.6133,0 0,-455.55654 c 0,0 63.7514,123.51824 251.021,123.51824 241.72385,0 382.50809,-199.22294 382.50809,-414.38384 z m -185.94145,13.2816 c 0,135.4716 -92.97072,225.78602 -219.14524,225.78602 -151.4095,0 -231.0987,-99.61152 -231.0987,-241.72392 0,-150.0813 94.2989,-261.6461 229.7705,-261.6461 158.05024,0 220.47344,139.456 220.47344,277.584 z"
         style="letter-spacing:-53.79507065px;fill:#000000;stroke:none"
         id="path4161" />
      <path
         d="m 89.867935,-885.36592 0,-181.95698 c -53.126128,35.8601 -131.487166,79.68919 -224.457895,79.68919 -166.01914,0 -258.98987,-103.59599 -258.98987,-239.06759 0,-164.691 94.29888,-273.5995 258.98987,-273.5995 122.190099,0 220.473436,71.7202 220.473436,71.7202 l 0,-179.3007 c -69.063967,-42.5009 -142.112393,-62.4232 -227.114196,-62.4232 -276.25587,0 -438.29056,209.8482 -438.29056,446.2595 0,248.36467 203.20744,405.08674 435.63425,405.08674 139.4560882,0 233.754965,-66.40766 233.754965,-66.40766 z"
         style="letter-spacing:-53.79507065px;fill:#000000;stroke:none"
         id="path4163" />
      <path
         d="m 973.4793,-838.88055 0,-815.48605 -170.00361,0 0,106.2522 c -43.82905,-74.3765 -148.75315,-122.1901 -262.97433,-122.1901 -251.02095,0 -387.82073,199.223 -387.82073,427.6654 0,241.7239 150.08131,423.68084 385.16443,423.68084 189.9259,0 265.63063,-130.15901 265.63063,-130.15901 l 0,110.23672 170.00361,0 z M 795.50678,-1255.9207 c 0,140.7843 -69.06397,278.91221 -231.09866,278.91221 -139.45609,0 -217.81713,-110.23671 -217.81713,-268.28691 0,-136.7998 74.37658,-268.287 225.78605,-268.287 132.81532,0 223.12974,111.5649 223.12974,257.6617 z"
         style="letter-spacing:-53.79507065px;fill:#000000;stroke:none"
         id="path4165" />
      <path
         d="m 1619.9323,-1655.6948 c -35.8602,-14.6097 -70.3921,-18.5941 -99.6115,-18.5941 -166.0192,0 -215.1608,138.1279 -215.1608,138.1279 l 0,-118.2056 -172.6599,0 0,815.48605 180.6288,0 c 0,0 0,-264.30245 0,-443.60315 0,-91.6426 43.829,-211.1764 166.0191,-211.1764 37.1883,0 82.3455,17.266 82.3455,17.266 l 58.4388,-179.3007 z"
         style="letter-spacing:-53.79507065px;fill:#000000;stroke:none"
         id="path4167" />
      <path
         d="m 1975.9971,-1483.0349 0,-171.3317 -135.4716,0 0,-223.1298 -185.9415,0 0,223.1298 -91.6425,0 0,171.3317 91.6425,0 0,644.15435 187.2696,0 0,-644.15435 134.1435,0 z"
         style="letter-spacing:-53.79507065px;fill:#000000;stroke:none"
         id="path4169" />
    </g>
    <g
       transform="matrix(2.6699068,0,0,2.6699068,3162.4123,2594.3834)"
       id="layer1-2"
       inkscape:label="Layer 1"
       style="fill:#3668d3;fill-opacity:1;stroke:none">
      <path
         inkscape:export-ydpi="300"
         inkscape:export-xdpi="300"
         style="font-style:normal;font-variant:normal;font-weight:normal;font-stretch:normal;font-size:medium;line-height:125%;font-family:'Android Assassin';-inkscape-font-specification:'Android Assassin, Normal';text-align:start;letter-spacing:0px;word-spacing:0px;writing-mode:lr-tb;text-anchor:start;fill:#3668d3;fill-opacity:1;stroke:none;stroke-width:1px;stroke-linecap:butt;stroke-linejoin:miter;stroke-opacity:1"
         d="m -136.54503,-1768.6692 102.767194,32.4112 c 4.27033,-12.9614 7.58168,-20.6487 13.53027,-32.4112 z m 158.60867,0.2793 c -102.888566,183.9439 47.11561,293.1116 150.10622,339.8634 102.99167,46.7512 197.00275,122.8785 95.88216,144.2811 -101.12272,21.4014 -198.153104,50.5649 -198.153104,50.5649 l 236.982004,0 c 34.97074,0 63.30026,-17.4868 84.98754,-52.4587 l 303.60021,-482.175 -53.96094,0 c -31.75591,43.1017 -147.19754,223.7326 -304.97289,246.9394 -157.77534,23.2085 -367.281766,-72.0852 -278.792651,-246.245 l -35.678549,-0.7516 z m -223.22053,176.189 176.781434,39.9234 c 0,0 -4.89038,-9.6651 -8.77704,-19.1708 -4.19149,-10.2501 -6.63906,-20.7526 -6.63906,-20.7526 z m 274.482213,412.249 c -24.514316,0 -49.812762,19.8719 -56.506535,44.3866 -6.693856,24.5129 7.750714,44.3861 32.265029,44.3861 24.514316,0 49.812711,-19.8732 56.508683,-44.3861 6.69273,-24.5147 -7.753956,-44.3866 -32.267177,-44.3866 z m 203.960787,0 c -24.5143,0 -49.81381,19.8719 -56.50761,44.3866 -6.69384,24.5129 7.75076,44.3861 32.26506,44.3861 24.51432,-10e-4 49.81271,-19.8732 56.50652,-44.3861 6.69491,-24.5147 -7.75181,-44.3866 -32.26397,-44.3866 z"
         id="path5406-9"
         inkscape:connector-curvature="0"
         sodipodi:nodetypes="cccccsscssccscccccsccssssssssss" />
    </g>
  </g>
</svg>
