<?xml version="1.0" encoding="UTF-8" standalone="no"?>
<!-- Created with Inkscape (http://www.inkscape.org/) -->

<svg
   xmlns:dc="http://purl.org/dc/elements/1.1/"
   xmlns:cc="http://creativecommons.org/ns#"
   xmlns:rdf="http://www.w3.org/1999/02/22-rdf-syntax-ns#"
   xmlns:svg="http://www.w3.org/2000/svg"
   xmlns="http://www.w3.org/2000/svg"
   xmlns:sodipodi="http://sodipodi.sourceforge.net/DTD/sodipodi-0.dtd"
   xmlns:inkscape="http://www.inkscape.org/namespaces/inkscape"
   width="467.13626mm"
   height="241.85486mm"
   viewBox="0 0 1655.2072 856.96604"
   id="svg4539"
   version="1.1"
   inkscape:version="0.91 r13725"
   sodipodi:docname="yipcart-logo-footer.svg"
   inkscape:export-filename="/Users/ponty/xtterix designs/Yipcart/yipcart-logo-icon.png"
   inkscape:export-xdpi="300"
   inkscape:export-ydpi="300">
  <defs
     id="defs4541" />
  <sodipodi:namedview
     id="base"
     pagecolor="#ffffff"
     bordercolor="#666666"
     borderopacity="1.0"
     inkscape:pageopacity="0.0"
     inkscape:pageshadow="2"
     inkscape:zoom="0.49497475"
     inkscape:cx="743.99053"
     inkscape:cy="323.08405"
     inkscape:document-units="px"
     inkscape:current-layer="layer1"
     showgrid="false"
     inkscape:window-width="1680"
     inkscape:window-height="955"
     inkscape:window-x="0"
     inkscape:window-y="1"
     inkscape:window-maximized="1"
     showguides="true"
     inkscape:guide-bbox="true"
     fit-margin-top="0"
     fit-margin-left="0"
     fit-margin-right="0"
     fit-margin-bottom="0" />
  <metadata
     id="metadata4544">
    <rdf:RDF>
      <cc:Work
         rdf:about="">
        <dc:format>image/svg+xml</dc:format>
        <dc:type
           rdf:resource="http://purl.org/dc/dcmitype/StillImage" />
        <dc:title></dc:title>
      </cc:Work>
    </rdf:RDF>
  </metadata>
  <g
     inkscape:label="Layer 1"
     inkscape:groupmode="layer"
     id="layer1"
     transform="translate(959.73858,1768.6692)">
    <path
       sodipodi:nodetypes="cccccsscssccscccccsccssssssssss"
       inkscape:connector-curvature="0"
       id="path5406"
       d="m -136.54503,-1768.6692 102.767194,32.4112 c 4.27033,-12.9614 7.58168,-20.6487 13.53027,-32.4112 z m 158.60867,0.2793 c -102.888566,183.9439 47.11561,293.1116 150.10622,339.8634 102.99167,46.7512 197.00275,122.8785 95.88216,144.2811 -101.12272,21.4014 -198.153104,50.5649 -198.153104,50.5649 l 236.982004,0 c 34.97074,0 63.30026,-17.4868 84.98754,-52.4587 l 303.60021,-482.175 -53.96094,0 c -31.75591,43.1017 -147.19754,223.7326 -304.97289,246.9394 -157.77534,23.2085 -367.281766,-72.0852 -278.792651,-246.245 l -35.678549,-0.7516 z m -223.22053,176.189 176.781434,39.9234 c 0,0 -4.89038,-9.6651 -8.77704,-19.1708 -4.19149,-10.2501 -6.63906,-20.7526 -6.63906,-20.7526 z m 274.482213,412.249 c -24.514316,0 -49.812762,19.8719 -56.506535,44.3866 -6.693856,24.5129 7.750714,44.3861 32.265029,44.3861 24.514316,0 49.812711,-19.8732 56.508683,-44.3861 6.69273,-24.5147 -7.753956,-44.3866 -32.267177,-44.3866 z m 203.960787,0 c -24.5143,0 -49.81381,19.8719 -56.50761,44.3866 -6.69384,24.5129 7.75076,44.3861 32.26506,44.3861 24.51432,-10e-4 49.81271,-19.8732 56.50652,-44.3861 6.69491,-24.5147 -7.75181,-44.3866 -32.26397,-44.3866 z"
       style="font-style:normal;font-variant:normal;font-weight:normal;font-stretch:normal;font-size:medium;line-height:125%;font-family:'Android Assassin';-inkscape-font-specification:'Android Assassin, Normal';text-align:start;letter-spacing:0px;word-spacing:0px;writing-mode:lr-tb;text-anchor:start;fill:#3668d3;fill-opacity:1;stroke:none;stroke-width:1px;stroke-linecap:butt;stroke-linejoin:miter;stroke-opacity:1"
       inkscape:export-xdpi="300"
       inkscape:export-ydpi="300" />
    <g
       transform="matrix(1,0,-0.18981524,1,0,0)"
       style="font-style:normal;font-variant:normal;font-weight:normal;font-stretch:normal;font-size:190.38117981px;line-height:125%;font-family:'Airbnb Cereal App';-inkscape-font-specification:'Airbnb Cereal App, Normal';text-align:start;letter-spacing:0px;word-spacing:0px;writing-mode:lr-tb;text-anchor:start;fill:#000000;fill-opacity:1;stroke:none;stroke-width:1px;stroke-linecap:butt;stroke-linejoin:miter;stroke-opacity:1"
       id="text4134">
      <path
         d="m -1087.483,-911.70318 q -10.6614,0 -19.7997,-3.61724 -9.1383,-3.80763 -15.8016,-10.66135 -6.6633,-6.85372 -9.7094,-16.1824 l 15.0401,-4.75953 q 3.8076,9.89982 11.6132,15.42088 7.996,5.52105 18.467,5.52105 8.1864,0 14.6594,-3.23648 6.6633,-3.42686 10.2805,-9.1383 3.8077,-5.90181 3.8077,-13.1363 0,-9.32868 -6.473,-15.23049 -6.2826,-6.0922 -18.2766,-8.75754 l -8.3768,-1.90381 q -18.6573,-4.18838 -27.986,-13.70744 -9.3287,-9.51907 -9.3287,-23.41687 0,-8.3768 3.0461,-15.2305 3.2365,-7.0441 8.9479,-12.1844 5.7115,-5.1403 13.1363,-7.8056 7.6153,-2.8558 16.3728,-2.8558 10.2806,0 18.8478,3.8077 8.7575,3.6172 15.0401,10.4709 6.2825,6.8538 9.1383,15.9921 l -15.0401,4.7595 q -3.8077,-10.0902 -11.0422,-15.4209 -7.2344,-5.3307 -16.9439,-5.3307 -7.4248,0 -13.1363,3.0461 -5.7114,2.8558 -8.9479,7.996 -3.2365,4.95 -3.2365,11.6133 0,8.7575 6.2826,14.469 6.2826,5.52102 19.99,8.7575 l 8.3768,1.90381 q 18.0862,4.18839 26.8437,14.08821 8.948,9.89982 8.948,23.98803 0,8.94791 -3.4269,16.56316 -3.2365,7.42486 -9.3287,12.94592 -5.9018,5.33067 -14.0882,8.37677 -8.1864,2.85572 -17.8958,2.85572 z"
         style=""
         id="path4145" />
      <path
         d="m -973.56666,-911.70318 q -10.85172,0 -19.99002,-3.80762 -8.94792,-3.80763 -15.61122,-10.66135 -6.6634,-7.0441 -10.2806,-16.37278 -3.6173,-9.51906 -3.6173,-20.94193 0,-11.23249 3.4269,-20.56117 3.6172,-9.51906 9.8998,-16.56317 6.473,-7.0441 15.04013,-10.8517 8.56716,-3.998 18.65736,-3.998 9.70944,0 17.89583,3.6172 8.37677,3.6173 14.46897,10.0902 6.0922,6.47298 9.32868,15.4209 3.42686,8.94791 3.42686,19.41888 l 0,6.28258 -76.34283,0 q 0.7615,10.66134 4.9499,18.65735 4.37875,7.99601 11.61324,12.37478 7.23448,4.37877 16.75354,4.37877 9.32868,0 16.1824,-3.80763 7.0441,-3.998 11.99402,-11.61325 l 12.94592,5.90182 q -3.80763,7.23448 -9.89983,12.37477 -6.09219,5.14029 -14.0882,7.80563 -7.80563,2.85572 -16.75355,2.85572 z m -2.47495,-90.81182 q -7.80563,0 -14.27859,3.80762 -6.28258,3.80762 -10.6613,10.66135 -4.1884,6.66334 -5.5211,15.61125 l 59.58931,0 q -0.76153,-8.94791 -4.75953,-15.61125 -3.99801,-6.85373 -10.28058,-10.66135 -6.28258,-3.80762 -14.08821,-3.80762 z"
         style=""
         id="path4147" />
      <path
         d="m -908.79542,-914.5589 0,-141.2628 15.2305,0 0,141.2628 -15.2305,0 z"
         style=""
         id="path4149" />
      <path
         d="m -866.77769,-914.5589 0,-141.2628 15.2305,0 0,141.2628 -15.2305,0 z"
         style=""
         id="path4151" />
      <path
         d="m -759.88758,-914.5589 -33.12632,-98.2367 15.99201,0 24.55918,79.57935 25.32069,-79.57935 13.70745,0 25.13031,79.57935 24.55918,-79.57935 15.61125,0 -33.12632,98.2367 -14.65935,0 -24.55917,-78.62743 -24.74956,78.62743 -14.65935,0 z"
         style=""
         id="path4153" />
      <path
         d="m -613.31788,-1041.5431 q 0,2.8557 -1.52305,5.3306 -1.33267,2.2846 -3.80762,3.8077 -2.28458,1.3326 -5.14029,1.3326 -2.85572,0 -5.33068,-1.3326 -2.28457,-1.5231 -3.80762,-3.8077 -1.33267,-2.4749 -1.33267,-5.3306 0,-2.8558 1.33267,-5.1403 1.52305,-2.475 3.80762,-3.8077 2.47496,-1.523 5.33068,-1.523 2.85571,0 5.14029,1.523 2.47495,1.3327 3.80762,3.8077 1.52305,2.2845 1.52305,5.1403 z m -18.08621,126.9842 0,-98.2367 15.23049,0 0,98.2367 -15.23049,0 z"
         style=""
         id="path4155" />
      <path
         d="m -553.01465,-911.70318 q -8.94792,0 -15.42088,-3.61724 -6.47296,-3.61725 -10.0902,-10.66135 -3.42686,-7.0441 -3.42686,-17.13431 l 0,-56.73359 -18.08621,0 0,-12.94593 18.08621,0 0,-32.9359 15.2305,0 0,32.9359 30.84175,0 0,12.94593 -30.84175,0 0,55.97207 q 0,8.75753 3.61724,13.70744 3.80762,4.75953 11.42287,4.75953 3.998,0 7.99601,-1.14228 4.18838,-1.33267 7.42486,-3.42686 l 4.56915,11.80363 q -3.998,2.85572 -9.32868,4.56915 -5.33067,1.90381 -11.99401,1.90381 z"
         style=""
         id="path4157" />
      <path
         d="m -512.04398,-914.5589 0,-141.2628 15.23049,0 0,57.3047 q 4.37877,-7.8056 12.56516,-12.3748 8.18639,-4.7595 18.46697,-4.7595 11.23249,0 19.60926,5.3307 8.37678,5.3306 12.75554,15.23046 4.56915,9.70944 4.56915,23.03612 l 0,57.49512 -15.23049,0 0,-56.54321 q 0,-14.65935 -6.47296,-22.65536 -6.28258,-7.99603 -18.08621,-7.99603 -8.1864,0 -14.65936,3.80764 -6.28257,3.61725 -9.89982,10.28059 -3.61724,6.47296 -3.61724,14.84973 l 0,58.25664 -15.23049,0 z"
         style=""
         id="path4159" />
      <path
         d="m -316.52848,-911.70318 q -10.85173,0 -19.99002,-3.80762 -8.94792,-3.80763 -15.61126,-10.66135 -6.66334,-7.0441 -10.28058,-16.37278 -3.61725,-9.51906 -3.61725,-20.94193 0,-11.23249 3.42687,-20.56117 3.61724,-9.51906 9.89982,-16.56317 6.47296,-7.0441 15.04011,-10.8517 8.56715,-3.998 18.65736,-3.998 9.70944,0 17.89583,3.6172 8.37677,3.6173 14.46897,10.0902 6.09219,6.47298 9.32867,15.4209 3.42687,8.94791 3.42687,19.41888 l 0,6.28258 -76.34286,0 q 0.76153,10.66134 4.94991,18.65735 4.37877,7.99601 11.61325,12.37478 7.23449,4.37877 16.75355,4.37877 9.32868,0 16.1824,-3.80763 7.0441,-3.998 11.99401,-11.61325 l 12.94592,5.90182 q -3.80762,7.23448 -9.89982,12.37477 -6.0922,5.14029 -14.08821,7.80563 -7.80562,2.85572 -16.75354,2.85572 z m -2.47495,-90.81182 q -7.80563,0 -14.27859,3.80762 -6.28258,3.80762 -10.66135,10.66135 -4.18839,6.66334 -5.52105,15.61125 l 59.58931,0 q -0.76153,-8.94791 -4.75953,-15.61125 -3.99801,-6.85373 -10.28059,-10.66135 -6.28258,-3.80762 -14.0882,-3.80762 z"
         style=""
         id="path4161" />
      <path
         d="m -221.29625,-911.70318 q -10.28059,0 -18.2766,-3.80762 -7.996,-3.99801 -12.56515,-10.85173 -4.37877,-6.85372 -4.37877,-15.80164 0,-9.70944 4.94991,-16.75354 5.14029,-7.04411 14.27859,-10.85173 9.1383,-3.99801 21.32269,-3.99801 6.85372,0 13.89783,1.52305 7.0441,1.52305 12.56516,3.99801 l 0,-7.23449 q 0,-7.99601 -3.23649,-13.89782 -3.04609,-6.0922 -8.56715,-9.32868 -5.52105,-3.42682 -12.94592,-3.42682 -8.94791,0 -15.61126,4.18834 -6.47296,4.18839 -9.70944,11.80364 l -13.32668,-4.56915 q 2.66534,-7.61525 8.18639,-13.13633 5.71144,-5.521 13.51707,-8.5671 7.99601,-3.0461 17.1343,-3.0461 11.80364,0 20.56117,5.1403 8.94792,4.9499 13.70745,14.08817 4.94991,8.94792 4.94991,21.13232 l 0,60.54121 -13.32669,0 -0.9519,-15.23049 q -4.18839,8.18639 -12.75554,13.1363 -8.37677,4.94991 -19.41888,4.94991 z m -19.79964,-31.03213 q 0,5.52105 2.85571,9.70944 2.85572,3.998 7.99601,6.28258 5.14029,2.28457 11.80364,2.28457 8.18639,0 14.65935,-3.61724 6.66334,-3.80763 10.47096,-10.09021 3.80763,-6.47296 3.80763,-14.65935 l 0,-3.61724 q -6.28258,-2.47495 -12.75554,-3.80762 -6.28258,-1.52305 -11.99402,-1.52305 -12.56516,0 -19.79964,5.14029 -7.0441,5.14029 -7.0441,13.89783 z"
         style=""
         id="path4163" />
      <path
         d="m -118.09773,-911.70318 q -8.56715,0 -16.1824,-2.85572 -7.42486,-2.85572 -12.94592,-8.18639 -5.52105,-5.33067 -8.37677,-12.56516 l 13.70744,-4.94991 q 3.80763,7.23449 9.89983,11.23249 6.09219,3.99801 13.89782,3.99801 6.28258,0 11.04211,-2.0942 4.75953,-2.09419 7.424866,-5.71143 2.665337,-3.80763 2.665337,-8.37677 0,-12.37478 -17.895833,-15.99202 l -7.42486,-1.52305 q -15.61126,-3.0461 -23.03613,-9.89982 -7.42486,-7.04411 -7.42486,-17.70545 0,-8.56716 4.37876,-15.2305 4.37877,-6.6633 12.1844,-10.2806 7.99601,-3.8076 18.08621,-3.8076 8.37677,0 15.42088,2.8557 7.044101,2.6653 11.994012,7.996 5.140292,5.33069 7.805628,12.56518 l -13.707445,4.56915 q -3.046099,-7.04411 -8.757535,-10.85173 -5.52105,-3.998 -12.94592,-3.998 -5.71143,0 -10.0902,1.9038 -4.18839,1.90382 -6.66334,5.1403 -2.47496,3.23648 -2.47496,7.61525 0,6.09219 4.56915,9.70944 4.75953,3.61724 15.23049,5.71143 l 7.42487,1.52305 q 14.088208,2.85572 21.513074,10.0902 7.424866,7.04411 7.424866,18.08622 0,6.85372 -2.855718,12.56515 -2.665337,5.52106 -7.615247,9.70944 -4.75953,4.18839 -11.613255,6.47296 -6.66334,2.28458 -14.65935,2.28458 z"
         style=""
         id="path4165" />
      <path
         d="m -16.82688,-911.70318 q -10.851727,0 -19.990024,-3.80762 -8.947915,-3.80763 -15.611257,-10.66135 -6.663341,-7.0441 -10.280583,-16.37278 -3.617243,-9.51906 -3.617243,-20.94193 0,-11.23249 3.426861,-20.56117 3.617243,-9.51906 9.899822,-16.56317 6.47296,-7.0441 15.040113,-10.8517 8.567153,-3.998 18.657356,-3.998 9.7094397,0 17.8958304,3.6172 8.3767719,3.6173 14.4689696,10.0902 6.092198,6.47298 9.328678,15.4209 3.426861,8.94791 3.426861,19.41888 l 0,6.28258 -76.342853,0 q 0.761525,10.66134 4.949911,18.65735 4.378767,7.99601 11.613252,12.37478 7.234485,4.37877 16.753544,4.37877 9.3286773,0 16.1823998,-3.80763 7.0441037,-3.998 11.9940142,-11.61325 l 12.94592,5.90182 q -3.807623,7.23448 -9.899821,12.37477 -6.0921978,5.14029 -14.0882073,7.80563 -7.8056284,2.85572 -16.7535437,2.85572 z m -2.474955,-90.81182 q -7.805629,0 -14.278589,3.80762 -6.282579,3.80762 -10.661346,10.66135 -4.188386,6.66334 -5.521054,15.61125 l 59.589309,0 q -0.7615247,-8.94791 -4.7595294,-15.61125 -3.9980048,-6.85373 -10.2805838,-10.66135 -6.2825788,-3.80762 -14.0882068,-3.80762 z"
         style=""
         id="path4167" />
    </g>
  </g>
</svg>
