<?xml version="1.0" encoding="UTF-8"?>
<svg width="173px" height="41px" viewBox="0 0 173 41" version="1.1" xmlns="http://www.w3.org/2000/svg" xmlns:xlink="http://www.w3.org/1999/xlink">
    <!-- Generator: Sketch 52.6 (67491) - http://www.bohemiancoding.com/sketch -->
    <title>Group 6 Copy 3</title>
    <desc>Created with Sketch.</desc>
    <g id="Page-1" stroke="none" stroke-width="1" fill="none" fill-rule="evenodd">
        <g id="login" transform="translate(-57.000000, -59.000000)" fill="#FFFFFF">
            <g id="Group-6-Copy-3" transform="translate(57.000000, 59.000000)">
                <path d="M119.027778,0 L126.146135,1.89814815 C126.441927,1.13906927 126.671293,0.688865812 127.083333,0 L119.027778,0 Z M128.939943,0 C122.208071,11.1006037 132.022659,17.6886307 138.761207,20.5099974 C145.499824,23.331328 151.650853,27.9254406 145.034658,29.2170397 C138.418324,30.5085664 132.069746,32.2685185 132.069746,32.2685185 L147.575185,32.2685185 C149.863277,32.2685185 151.716842,31.2132292 153.135814,29.1027531 L173,0.004568326 L169.469403,0.004568326 C167.391653,2.60565969 159.83845,13.5063312 149.515404,14.9068098 C139.192359,16.307391 125.484613,10.5566289 131.274346,0.0464738157 L128.939943,0.0011164337 L128.939943,0 Z M115,10.6296296 L126.277778,13.287037 C126.277778,13.287037 125.965796,12.6437023 125.717846,12.0109777 C125.45045,11.3287039 125.294307,10.6296296 125.294307,10.6296296 L115,10.6296296 Z M132.913577,35.3055556 C131.304528,35.3055556 129.644011,36.5802654 129.204651,38.1527938 C128.765286,39.7252068 129.713386,41 131.322434,41 C132.931483,41 134.591996,39.7252068 135.0315,38.1527938 C135.470792,36.5802654 134.522553,35.3055556 132.913577,35.3055556 Z M145.802586,35.3055556 C144.193517,35.3055556 142.532909,36.5802654 142.093541,38.1527938 C141.654171,39.7252068 142.602285,41 144.211354,41 C145.820425,40.9999359 147.48096,39.7252068 147.920328,38.1527938 C148.359768,36.5802654 147.411515,35.3055556 145.802586,35.3055556 Z" id="path5406-copy" fill-rule="nonzero"></path>
                <path d="M19.8528896,13.4610136 L4.52753681,38 L0,38 L6.80927162,27.1306043 L0.754589468,13.4610136 L4.99466362,13.4610136 L9.18083852,23.4356725 L15.3073863,13.4610136 L19.8528896,13.4610136 Z M25.6824631,6.0380117 C25.6824631,6.56822877 25.472857,7.02663874 25.0536385,7.41325536 C24.6344201,7.79987198 24.1313655,7.99317739 23.5444596,7.99317739 C22.9575538,7.99317739 22.4485104,7.79434897 22.0173143,7.39668616 C21.5980958,6.97693097 21.3884897,6.49642896 21.3884897,5.95516569 C21.3884897,5.41390243 21.592107,4.95549246 21.9993478,4.57992203 C22.4185663,4.19330541 22.9156322,4 23.4905604,4 C24.0774662,4 24.5865096,4.20435143 25.0177057,4.61306043 C25.4608795,5.01072324 25.6824631,5.48570224 25.6824631,6.0380117 Z M24.4427804,13.4610136 L22.3586762,29.0692008 L18.3880982,29.0692008 L20.4722025,13.4610136 L24.4427804,13.4610136 Z M31.5120366,13.4610136 L31.2964396,15.1013645 C33.0092465,13.7537295 34.8118589,13.079922 36.7043308,13.079922 C38.9561329,13.079922 40.8306102,13.8034366 42.327819,15.2504873 C43.8250278,16.6975381 44.573621,18.525655 44.573621,20.7348928 C44.573621,23.1871468 43.7172304,25.2527531 42.0044235,26.9317739 C40.3035943,28.5997484 38.1895672,29.4337232 35.6622787,29.4337232 C34.3686903,29.4337232 33.3086824,29.2459408 32.4822231,28.8703704 C31.6198308,28.4947999 30.7035528,27.8154695 29.7333615,26.8323587 L28.2421489,38 L24.271571,38 L27.5414587,13.4610136 L31.5120366,13.4610136 Z M40.6030431,20.8840156 C40.6030431,19.503242 40.1718534,18.3710246 39.3094611,17.4873294 C38.4470689,16.5925881 37.3451397,16.1452242 36.0036406,16.1452242 C34.3986328,16.1452242 33.0571538,16.6864793 31.9791634,17.7690058 C30.9011731,18.8515324 30.362186,20.1825782 30.362186,21.7621832 C30.362186,23.1429569 30.8173307,24.2530822 31.7276336,25.0925926 C32.6379366,25.9541953 33.8117307,26.3849903 35.2490511,26.3849903 C36.7582376,26.3849903 38.0278516,25.8547811 39.0579313,24.794347 C40.088011,23.7118204 40.6030431,22.4083897 40.6030431,20.8840156 Z M60.1589584,14.9688109 L59.6558987,18.6968811 C58.8414171,17.7358626 58.0628802,17.0454862 57.3202646,16.625731 C56.5896267,16.217022 55.7272474,16.0126706 54.7331008,16.0126706 C53.2239143,16.0126706 51.984244,16.5263107 51.0140527,17.5536062 C50.0438614,18.5809018 49.558773,19.9009016 49.558773,21.5136452 C49.558773,23.0269731 50.0139176,24.2365127 50.9242206,25.1423002 C51.8465012,26.0591339 53.0382615,26.5175439 54.4995373,26.5175439 C55.9009248,26.5175439 57.3502012,25.9597197 58.84741,24.8440546 L58.3263839,28.7046784 C56.7932421,29.2790802 55.3319882,29.5662768 53.9425785,29.5662768 C51.4632007,29.5662768 49.4449935,28.8206702 47.8878963,27.3294347 C46.3427768,25.8381992 45.5702286,23.9051451 45.5702286,21.5302144 C45.5702286,19.0890066 46.4026643,17.0510153 48.0675605,15.4161793 C49.7444343,13.7702972 51.8285177,12.9473684 54.3198732,12.9473684 C56.3560772,12.9473684 58.3024194,13.6211758 60.1589584,14.9688109 Z M78.6907879,13.4610136 L76.6066837,29.0692008 L72.6361058,29.0692008 L72.8696692,27.3791423 C71.16884,28.7488697 69.4081488,29.4337232 67.5875429,29.4337232 C65.3477185,29.4337232 63.5211512,28.7323007 62.1077861,27.3294347 C60.6944209,25.9265687 59.987749,24.1094978 59.987749,21.8781676 C59.987749,19.3044056 60.7962296,17.1946151 62.4132151,15.5487329 C64.054156,13.9028508 66.1562056,13.079922 68.7194271,13.079922 C69.9291718,13.079922 70.959236,13.2621814 71.8096506,13.6267057 C72.6720429,13.9912299 73.5523885,14.6208532 74.4507138,15.5155945 L74.72021,13.4610136 L78.6907879,13.4610136 Z M73.8578221,20.8177388 C73.8578221,19.4369652 73.4266324,18.3157938 72.5642401,17.454191 C71.7018478,16.5815421 70.5879412,16.1452242 69.2224868,16.1452242 C67.7372556,16.1452242 66.4915966,16.6809563 65.4854722,17.7524366 C64.4793479,18.8349632 63.9762933,20.160486 63.9762933,21.7290448 C63.9762933,23.0987723 64.3955055,24.2199437 65.2339424,25.0925926 C66.0723794,25.9652415 67.1503535,26.4015595 68.4678973,26.4015595 C69.9291731,26.4015595 71.1927984,25.8547813 72.258811,24.7612086 C73.3248237,23.6455435 73.8578221,22.3310667 73.8578221,20.8177388 Z M85.7780106,13.4610136 L85.5983464,14.8031189 C86.9398455,13.6322229 88.293302,13.0467836 89.6587564,13.0467836 C90.8565235,13.0467836 91.9464751,13.4499635 92.9286441,14.2563353 L90.3953795,17.2719298 C89.6647416,16.697528 88.9341146,16.4103314 88.2034767,16.4103314 C87.7004146,16.4103314 87.2572474,16.5014611 86.8739619,16.6837232 C86.4906765,16.8659853 86.1583011,17.1531819 85.8768259,17.5453216 C85.5953506,17.9374613 85.3617895,18.4428169 85.1761356,19.0614035 C84.9904818,19.6799901 84.8437575,20.4200737 84.7359585,21.2816764 L83.6939063,29.0692008 L79.7233284,29.0692008 L81.8074327,13.4610136 L85.7780106,13.4610136 Z M98.8856908,16.8576998 L97.2507469,29.0692008 L93.280169,29.0692008 L94.9151128,16.8576998 L92.6693109,16.8576998 L93.1184713,13.4610136 L95.3642732,13.4610136 L96.3344597,6.2202729 L100.305038,6.2202729 L99.3348512,13.4610136 L103,13.4610136 L102.55084,16.8576998 L98.8856908,16.8576998 Z" id="yipcart"></path>
            </g>
        </g>
    </g>
</svg>